<svg width="29" height="21" viewBox="0 0 29 21" fill="none" xmlns="http://www.w3.org/2000/svg">
<path fill-rule="evenodd" clip-rule="evenodd" d="M22.2327 18.287C21.2691 20.3975 17.9676 19.0886 18.8386 17.0742C19.6562 15.1833 23.1815 16.2093 22.2327 18.287ZM5.39004 16.1802C7.62837 15.3555 8.85092 18.3408 6.83588 19.2113C4.6379 20.1609 3.00458 17.059 5.39004 16.1802ZM4.4667 7.88283C5.40854 6.61562 5.08849 6.66244 5.93336 6.62422C6.63191 6.59258 7.75143 6.60372 8.4431 6.66934L8.42965 11.0447L2.22129 11.0064L4.4668 7.88283H4.4667ZM11.8753 4.55303C11.106 4.34376 6.21013 4.27878 5.2426 4.41362C4.64407 4.49708 4.5935 4.70624 4.27133 5.17735L2.08245 8.18236C-0.197029 11.0509 0.0224054 10.8861 0.0234166 13.1256C0.0260458 18.6983 -0.414237 17.4657 2.40968 17.7475C2.68291 19.8093 4.02065 21.0834 6.23167 20.9957C7.15026 20.9593 8.24045 20.4653 8.70056 19.9949C9.83544 18.8344 9.30971 17.8541 9.87883 17.7124C11.6249 17.7092 12.091 18.0232 12.0771 16.0817C12.0607 13.801 12.2833 5.53995 11.8753 4.55314V4.55303ZM21.6057 1.7659C24.1387 1.27728 26.4811 3.01273 26.9833 5.06481C27.6922 7.96109 25.4318 10.0041 23.2212 10.3605C17.1679 11.3361 15.0851 3.02388 21.6057 1.7659ZM16.9029 17.7321C17.1743 19.7312 18.3877 21.0125 20.553 20.999C22.0063 20.99 23.2675 20.2823 23.8234 19.0547C24.0652 18.5209 23.9981 17.9224 24.3448 17.7129C28.3845 17.6981 27.7658 17.9777 27.7658 13.7153C27.7658 12.5556 27.6963 11.1529 27.7603 10.0245C27.8053 9.23128 28.5525 8.52372 28.828 7.36512C30.2835 1.24362 22.1452 -2.20394 17.8409 1.57659C17.4232 1.94353 17.4 2.18307 16.6319 2.21216C12.5886 2.36569 13.3026 1.72959 13.3026 6.34179C13.3026 8.84873 13.3026 11.3557 13.3026 13.8626C13.3026 18.3227 12.8806 17.5176 16.9029 17.7319V17.7321Z" fill="#ED561B"/>
</svg>
