<svg width="30" height="28" viewBox="0 0 30 28" fill="none" xmlns="http://www.w3.org/2000/svg">
<path fill-rule="evenodd" clip-rule="evenodd" d="M14.485 10.8965L19.1333 10.9205L19.1205 14.0147L14.4351 14.0248L14.485 10.8965ZM23.7914 23.5432C20.7989 24.8276 22.6392 28.8657 25.5041 27.8098C28.2196 26.8091 26.6004 22.3375 23.7914 23.5432ZM9.74375 23.5379C6.76771 24.7302 8.50511 28.9187 11.4834 27.8173C14.0482 26.8688 12.6849 22.3596 9.74375 23.5379ZM20.6664 10.9083L26.0418 10.9483L25.53 14.0229L20.6468 13.9403L20.6664 10.9083H20.6664ZM8.26421 10.8968L12.8779 10.9232L12.867 14.0183L8.70568 13.9729L8.26425 10.8968H8.26421ZM14.435 6.28226L19.1527 6.29056L19.0561 9.36837L14.444 9.31241L14.435 6.28226ZM20.6492 6.28342L26.6864 6.25767L26.1726 9.36958L20.6564 9.31549L20.6492 6.28338V6.28342ZM12.8189 9.36132L7.9671 9.38056L7.45421 6.27092L12.8909 6.2977L12.8189 9.36132ZM3.67834 3.1549C4.12255 4.00273 5.63233 14.3796 5.97421 16.3515C7.21124 23.4861 4.53204 21.6884 23.9318 21.7573C25.1668 21.7618 26.3995 21.8687 26.8003 20.7871C27.2502 19.5724 26.3583 18.7664 25.3377 18.6822C21.6933 18.3819 12.0614 19.0324 9.54103 18.5948L9.25715 17.1487C12.1489 16.841 25.5142 17.3222 27.1283 17.0766C28.2888 16.9 28.4182 16.22 28.5981 14.9823C28.9087 12.8469 29.194 10.7238 29.4921 8.58196C29.7571 6.6785 30.8267 3.56346 28.728 3.2135C27.5128 3.01083 10.264 3.30299 6.97303 3.16289C6.10099 0.209111 7.22466 -0.128841 1.89069 0.033217C0.56188 0.0736089 -0.429987 0.839937 0.188281 2.28833C0.675377 3.42921 2.28726 3.07805 3.67839 3.1549H3.67834Z" fill="#DDDF00"/>
</svg>
