<svg width="31" height="23" viewBox="0 0 31 23" fill="none" xmlns="http://www.w3.org/2000/svg">
<path d="M12.1096 10.6555C11.4611 9.99461 11.0712 9.1726 11.0712 8.27923C11.0712 6.11197 13.3399 4.34915 16.1286 4.34915C18.9172 4.34915 21.186 6.11197 21.186 8.27923C21.186 9.1726 20.796 9.99461 20.1475 10.6555C19.2228 11.5979 17.7677 12.2098 16.1286 12.2098C14.4894 12.2098 13.0343 11.5979 12.1096 10.6555ZM7.52775 5.35555L7.17839 5.04093L5.76151 5.99114L6.11088 6.30576L7.52775 5.35555ZM5.05511 4.44722L4.52029 4.4391L4.47719 6.12612L5.01201 6.13424L5.05511 4.44722ZM0.811821 9.62804L1.07085 9.63958C1.54561 9.66073 1.95253 9.37877 1.9797 9.00983L2.00951 8.60489L3.03101 8.65031L2.76874 11.703C2.7134 12.3472 3.34079 12.9044 4.16979 12.9475L9.19782 13.5322V18.0441C9.19782 18.5808 9.75766 19.0158 10.4483 19.0158H25.1554C25.8334 19.0158 26.6856 18.2619 26.2782 17.6163L22.7321 11.9961C22.6037 11.7926 22.425 11.6216 22.2145 11.4854C21.8387 11.1627 21.3593 10.9134 20.8158 10.7706C20.6906 10.9125 20.5548 11.0481 20.4097 11.1774C20.0332 11.513 19.5929 11.8042 19.1034 12.0393C18.2378 12.4549 17.2188 12.6953 16.1286 12.6953C14.61 12.6953 13.2311 12.228 12.211 11.4708C11.9257 11.259 11.6669 11.0258 11.4428 10.7722L11.4413 10.7706C11.2109 10.6577 10.9469 10.5791 10.6599 10.5468L5.92987 10.0131L6.03547 8.78389L7.07987 8.83032L7.05003 9.2354C7.02287 9.60424 7.3856 9.92036 7.86024 9.94151L8.11935 9.95305C8.59412 9.9742 9.00104 9.69225 9.02822 9.32331L9.16432 7.4756C9.19149 7.10673 8.82865 6.7906 8.35396 6.76957L8.09462 6.75807C7.61999 6.73705 7.21327 7.01895 7.18611 7.38777L7.15629 7.79259L5.9635 7.73956C5.75094 7.34248 5.26871 7.04968 4.67914 7.01898C4.07581 6.98758 3.53971 7.23661 3.26646 7.61967L2.08596 7.56715L2.11577 7.16227C2.14293 6.79339 1.78017 6.47724 1.30548 6.45609L1.04645 6.44455C0.571685 6.4234 0.164758 6.70535 0.137582 7.07429L0.00149313 8.92181C-0.02568 9.29071 0.337105 9.60689 0.811821 9.62804ZM3.7357 5.95993L2.36845 4.96685L2.00308 5.2703L3.37033 6.26338L3.7357 5.95993Z" fill="#0097D0"/>
</svg>
