<svg width="32" height="20" viewBox="0 0 32 20" fill="none" xmlns="http://www.w3.org/2000/svg">
<g clip-path="url(#clip0_2_96)">
<path d="M25.7425 12.4071L19.7057 15.9156L22.2833 17.4132L28.3201 13.9047L25.7425 12.4071Z" fill="#0097D0"/>
<path d="M18.1247 16.8404C18.059 16.8786 17.9934 16.9358 17.9934 16.9931L17.468 18.3478C17.3695 18.5768 17.7307 18.7867 18.1247 18.7295L20.4561 18.4242C20.5546 18.4051 20.6531 18.386 20.7188 18.3478L21.4412 17.9281L18.8799 16.4397L18.1247 16.8404Z" fill="#0097D0"/>
<path d="M30.4055 12.2228L28.5995 11.1924C28.4025 11.0779 28.0413 11.0779 27.8443 11.1924L26.6293 11.8984L29.1905 13.3867L30.4055 12.6807C30.6353 12.5472 30.6353 12.3563 30.4055 12.2228Z" fill="#0097D0"/>
<path d="M24.1993 12.032V1.36559C24.1993 0.945803 23.6083 0.602341 22.8859 0.602341H3.97238C3.24998 0.602341 2.65894 0.945803 2.65894 1.36559V14.4553C2.65894 14.8751 3.24998 15.2186 3.97238 15.2186H18.7486L24.1993 12.032ZM11.7545 3.17831H19.2083C19.6351 3.17831 19.9635 3.3882 19.9635 3.61718C19.9635 3.86523 19.6023 4.05605 19.2083 4.05605H11.7545C11.3276 4.05605 10.9993 3.84615 10.9993 3.61718C10.9664 3.36912 11.3276 3.17831 11.7545 3.17831ZM11.7545 6.02141H19.2083C19.6351 6.02141 19.9635 6.23131 19.9635 6.46028C19.9635 6.70834 19.6023 6.89915 19.2083 6.89915H11.7545C11.3276 6.89915 10.9993 6.68926 10.9993 6.46028C10.9664 6.23131 11.3276 6.02141 11.7545 6.02141ZM11.7545 8.90268H19.2083C19.6351 8.90268 19.9635 9.11257 19.9635 9.34155C19.9635 9.58961 19.6023 9.78042 19.2083 9.78042H11.7545C11.3276 9.78042 10.9993 9.57052 10.9993 9.34155C10.9664 9.09349 11.3276 8.90268 11.7545 8.90268ZM8.20822 12.6617H7.65001C7.22314 12.6617 6.89478 12.4518 6.89478 12.2228C6.89478 11.9748 7.25598 11.7839 7.65001 11.7839H8.20822C8.63509 11.7839 8.96345 11.9938 8.96345 12.2228C8.99628 12.4518 8.63509 12.6617 8.20822 12.6617ZM8.20822 9.78042H7.65001C7.22314 9.78042 6.89478 9.57052 6.89478 9.34155C6.89478 9.09349 7.25598 8.90268 7.65001 8.90268H8.20822C8.63509 8.90268 8.96345 9.11257 8.96345 9.34155C8.99628 9.58961 8.63509 9.78042 8.20822 9.78042ZM8.20822 6.91823H7.65001C7.22314 6.91823 6.89478 6.70834 6.89478 6.47936C6.89478 6.23131 7.25598 6.04049 7.65001 6.04049H8.20822C8.63509 6.04049 8.96345 6.25039 8.96345 6.47936C8.99628 6.72742 8.63509 6.91823 8.20822 6.91823ZM8.20822 4.07513H7.65001C7.22314 4.07513 6.89478 3.86523 6.89478 3.63626C6.89478 3.3882 7.25598 3.19739 7.65001 3.19739H8.20822C8.63509 3.19739 8.96345 3.40728 8.96345 3.63626C8.99628 3.86523 8.63509 4.07513 8.20822 4.07513ZM10.9664 12.2037C10.9664 11.9557 11.3276 11.7649 11.7217 11.7649H19.1754C19.6023 11.7649 19.9307 11.9748 19.9307 12.2037C19.9307 12.4518 19.5695 12.6426 19.1754 12.6426H11.7545C11.3276 12.6617 10.9664 12.4518 10.9664 12.2037Z" fill="#0097D0"/>
</g>
<defs>
<clipPath id="clip0_2_96">
<rect width="31.9072" height="18.5415" fill="white" transform="translate(0 0.602539)"/>
</clipPath>
</defs>
</svg>
