<svg width="24" height="15" viewBox="0 0 24 15" fill="none" xmlns="http://www.w3.org/2000/svg">
<path fill-rule="evenodd" clip-rule="evenodd" d="M11.1951 7.86723C15.1843 7.86723 18.4182 6.13779 18.4182 4.00442C18.4182 1.87104 15.1843 0.141602 11.1951 0.141602C7.20592 0.141602 3.97203 1.87104 3.97203 4.00442C3.97203 6.13779 7.20592 7.86723 11.1951 7.86723ZM2.94997 7.09375H5.41621C6.73401 8.0319 8.83199 8.63872 11.195 8.63872C13.558 8.63872 15.656 8.0319 16.9738 7.09375H18.7864C19.1095 7.09375 19.413 7.24862 19.6026 7.51023L23.7405 13.2199C24.2235 13.8863 23.7474 14.8194 22.9244 14.8194H1.0088C0.318243 14.8194 -0.167837 14.1407 0.0544429 13.4869L1.99561 7.77729C2.13456 7.3686 2.51831 7.09375 2.94997 7.09375Z" fill="#0097D0"/>
</svg>
