<svg width="36" height="26" viewBox="0 0 36 26" fill="none" xmlns="http://www.w3.org/2000/svg">
<path fill-rule="evenodd" clip-rule="evenodd" d="M12.7983 18.1577C12.0632 17.4064 11.5184 17.8197 10.8165 17.4126C10.6254 16.719 10.8857 16.0416 10.3106 15.3992C9.75424 14.7779 9.20539 14.9888 8.29145 14.8803C7.43194 13.9238 6.80965 12.789 5.93568 12.0249C5.309 13.2633 5.06122 13.1102 5.88726 14.1001C6.24812 14.5327 7.0779 15.5353 7.26686 15.9941C6.99308 16.4866 6.72175 16.8668 6.31977 17.3611C5.08835 18.8752 5.98214 20.1895 6.89771 20.4648C7.81652 20.741 8.18064 20.3972 8.83461 20.0963C8.30867 23.0048 10.9392 23.1825 11.7095 22.1557C11.6036 23.3624 11.3538 23.9652 12.3932 24.484C13.6232 25.0983 14.0723 24.3907 14.7803 23.9518C14.5828 26.6432 17.2518 26.4451 17.9193 24.7264C19.3952 25.4441 20.8791 25.2417 21.3971 23.7899C22.3921 24.0403 22.8888 24.6729 24.1596 24.1457C25.0273 23.7856 25.2218 23.2999 25.487 22.3134C26.5001 21.9281 28.1507 22.4293 28.3198 19.726C29.3244 19.5065 30.0078 19.2971 30.4426 18.6747C30.8935 18.0294 31.0392 17.0305 30.7513 16.1892C30.2496 14.7239 29.9288 15.8622 30.6701 14.0999C31.053 13.1895 30.6475 12.8624 30.2036 11.9605C28.8111 9.13141 27.5488 6.30662 26.1082 3.4617C23.3436 3.3103 20.5213 1.86854 18.0117 2.3314C14.4125 2.99525 18.6389 3.41604 9.84035 3.37103L9.17289 4.99317L12.582 4.99693C12.1818 6.0346 11.7405 6.23592 11.6429 7.69946C11.4809 10.1249 10.9933 10.0804 11.0123 10.7221C11.0581 12.2776 14.0903 12.3434 15.5347 10.3588C15.777 10.026 16.6521 5.90678 19.3353 7.43219L26.9659 14.1045C28.0134 14.9666 30.9017 17.0981 29.0586 18.2485C28.0212 18.896 27.1202 17.8246 26.5291 17.4122C25.758 16.874 25.1681 16.4509 24.4923 15.9563C23.8902 15.5155 20.7418 12.9327 20.1602 13.4101C19.7179 13.7729 20.0997 14.3099 20.4708 14.5828L23.5059 16.7884C24.1492 17.2542 24.8626 17.7622 25.5362 18.2557C26.1834 18.7295 27.143 19.1834 26.9987 20.1168C26.6811 22.1699 24.0699 19.8468 22.7969 18.9348C21.7771 18.2046 19.2404 15.9309 18.7024 16.7783C18.4182 17.5469 19.3453 17.9172 19.8253 18.2637L23.1452 20.6669C25.3531 22.239 23.7701 23.8128 22.164 22.6054L18.8077 20.244C18.569 20.0612 18.2465 19.7337 17.9779 19.6266C17.7147 19.5217 17.8738 19.4893 17.5308 19.5769C16.1062 19.9399 18.2658 21.3054 18.6098 21.5674C18.9419 21.8201 19.2997 22.0877 19.6024 22.3187C21.2899 23.6063 19.5083 24.3084 18.4268 23.4981C17.527 22.8239 18.5411 23.0748 16.9239 22.2979C15.8585 21.7861 16.1822 21.4887 15.6624 20.6978C15.1446 19.9098 14.6232 20.1067 13.7767 19.8913C12.9518 19.2503 13.508 18.8827 12.7988 18.158L12.7983 18.1577ZM3.41873 13.4294C4.50034 11.9852 5.48496 9.36366 6.31847 7.61353C8.70967 2.5918 9.79811 1.76624 7.86608 0.780948C7.43892 0.563103 7.12355 0.398448 6.68616 0.205481C5.40697 -0.359019 5.27536 0.311043 4.83781 1.34626C3.7224 3.98544 1.7712 7.69979 0.469098 10.3584C-0.046933 11.4123 -0.378714 11.9456 0.807864 12.5246C1.6898 12.9549 2.32362 13.5649 3.41873 13.4294ZM26.9608 1.39651C26.8986 2.5607 29.0297 6.28519 29.652 7.55658C30.4135 9.11243 31.6605 12.278 32.6698 13.4065C33.5183 13.4476 34.5101 12.8984 35.1499 12.5623C36.2219 11.9991 36.1662 11.5375 35.6094 10.5036C34.7678 8.9404 34.1022 7.40927 33.3534 5.9197C32.5517 4.3249 31.8191 2.82748 31.098 1.33022C30.6034 0.303351 30.5336 -0.340194 29.2331 0.212194C28.4678 0.537243 27.4907 0.99486 26.9607 1.39667L26.9608 1.39651Z" fill="#0097D0"/>
</svg>
