<svg width="19" height="16" viewBox="0 0 19 16" fill="none" xmlns="http://www.w3.org/2000/svg">
<path d="M17.1597 15.6085H1.71597C1.26103 15.608 0.824906 15.4616 0.503214 15.2012C0.181522 14.9408 0.000529837 14.5878 0 14.2195V4.95996H18.8757V14.2195C18.8751 14.5878 18.6941 14.9408 18.3724 15.2012C18.0507 15.4616 17.6146 15.608 17.1597 15.6085ZM5.71989 9.78814C5.56819 9.78814 5.42268 9.83692 5.31541 9.92375C5.20814 10.0106 5.1479 10.1283 5.1479 10.2511V10.3173C5.1479 10.4401 5.20814 10.5579 5.31541 10.6447C5.42268 10.7315 5.56819 10.7803 5.71989 10.7803H8.82492V13.2936C8.82492 13.4164 8.88523 13.5341 8.99249 13.6209C9.09976 13.7078 9.24521 13.7566 9.39691 13.7566H9.47874C9.63044 13.7566 9.77589 13.7078 9.88316 13.6209C9.99043 13.5341 10.0507 13.4164 10.0507 13.2936V10.7803H13.1558C13.3075 10.7803 13.453 10.7315 13.5602 10.6447C13.6675 10.5579 13.7277 10.4401 13.7277 10.3173V10.2511C13.7277 10.1283 13.6675 10.0106 13.5602 9.92375C13.453 9.83692 13.3075 9.78814 13.1558 9.78814H10.0507V7.27486C10.0507 7.15207 9.99043 7.03431 9.88316 6.94749C9.77589 6.86066 9.63044 6.81188 9.47874 6.81188H9.39691C9.24521 6.81188 9.09976 6.86066 8.99249 6.94749C8.88523 7.03431 8.82492 7.15207 8.82492 7.27486V9.78836L5.71989 9.78814Z" fill="#0097D0"/>
<path d="M14.8717 4.26447H0V3.33851C0 2.97014 0.180779 2.61685 0.502585 2.35637C0.824392 2.0959 1.26087 1.94957 1.71597 1.94957H2.57395V1.2551C2.57395 0.948129 2.72458 0.653731 2.99275 0.436667C3.26092 0.219604 3.62467 0.0976562 4.00393 0.0976562H4.57592C4.95517 0.0976562 5.31892 0.219604 5.58709 0.436667C5.85526 0.653731 6.00589 0.948129 6.00589 1.2551V1.94957H7.72186V1.2551C7.72186 0.948129 7.87248 0.653731 8.14066 0.436667C8.40883 0.219604 8.77258 0.0976562 9.15183 0.0976562H9.72382C10.1031 0.0976562 10.4668 0.219604 10.735 0.436667C11.0032 0.653731 11.1538 0.948129 11.1538 1.2551V1.94957H12.8698V1.2551C12.8698 0.948129 13.0204 0.653731 13.2886 0.436667C13.5567 0.219604 13.9205 0.0976562 14.2997 0.0976562H14.8717C15.251 0.0976562 15.6147 0.219604 15.8829 0.436667C16.1511 0.653731 16.3017 0.948129 16.3017 1.2551V1.94957H17.1597C17.6148 1.94957 18.0513 2.0959 18.3731 2.35637C18.6949 2.61685 18.8757 2.97014 18.8757 3.33851V4.26447H14.8717Z" fill="#0097D0"/>
</svg>
